# Blender v2.79 (sub 0) OBJ File: 'Spaceship.blend'
# www.blender.org
mtllib Planet 3.mtl
o Sphere.005
v 0.231771 1.138170 -0.714575
v 0.231771 1.025147 -0.827598
v 0.231771 0.950674 -0.858446
v 0.231771 0.870755 -0.868967
v 0.231771 0.790835 -0.858446
v 0.231771 0.716362 -0.827598
v 0.231771 0.652411 -0.778526
v 0.231771 0.603339 -0.714575
v 0.231771 0.572491 -0.640102
v 0.231771 0.561970 -0.560182
v 0.271730 1.169018 -0.629394
v 0.308967 1.138170 -0.693890
v 0.340943 1.089099 -0.749274
v 0.365479 1.025147 -0.791771
v 0.380902 0.950674 -0.818486
v 0.386163 0.870755 -0.827598
v 0.380902 0.790835 -0.818486
v 0.365479 0.716362 -0.791771
v 0.340943 0.652411 -0.749274
v 0.308967 0.603339 -0.693890
v 0.271730 0.572491 -0.629395
v 0.300983 1.169018 -0.600142
v 0.365478 1.138170 -0.637378
v 0.420862 1.089099 -0.669354
v 0.463359 1.025147 -0.693890
v 0.490074 0.950674 -0.709314
v 0.499186 0.870755 -0.714575
v 0.490074 0.790835 -0.709314
v 0.463359 0.716362 -0.693890
v 0.420862 0.652411 -0.669354
v 0.365479 0.603339 -0.637379
v 0.300983 0.572491 -0.600142
v 0.311690 1.169018 -0.560182
v 0.386163 1.138170 -0.560182
v 0.450115 1.089099 -0.560182
v 0.499186 1.025147 -0.560182
v 0.530034 0.950674 -0.560182
v 0.540556 0.870755 -0.560182
v 0.530034 0.790835 -0.560182
v 0.499186 0.716362 -0.560182
v 0.450115 0.652411 -0.560182
v 0.386163 0.603339 -0.560182
v 0.311690 0.572491 -0.560182
v 0.300983 1.169018 -0.520223
v 0.365478 1.138170 -0.482986
v 0.420862 1.089099 -0.451010
v 0.463359 1.025147 -0.426475
v 0.490074 0.950674 -0.411051
v 0.499186 0.870755 -0.405790
v 0.490074 0.790835 -0.411051
v 0.463359 0.716362 -0.426475
v 0.420862 0.652411 -0.451010
v 0.365479 0.603339 -0.482986
v 0.300983 0.572491 -0.520223
v 0.271730 1.169018 -0.490970
v 0.308967 1.138170 -0.426475
v 0.340943 1.089099 -0.371091
v 0.365478 1.025147 -0.328594
v 0.380902 0.950674 -0.301879
v 0.386163 0.870755 -0.292767
v 0.380902 0.790835 -0.301879
v 0.365479 0.716362 -0.328594
v 0.340943 0.652411 -0.371091
v 0.308967 0.603339 -0.426475
v 0.271730 0.572491 -0.490970
v 0.231771 1.169018 -0.480263
v 0.231771 1.138170 -0.405790
v 0.231771 1.089099 -0.341838
v 0.231771 1.025147 -0.292767
v 0.231771 0.950674 -0.261919
v 0.231771 0.870755 -0.251397
v 0.231771 0.790835 -0.261919
v 0.231771 0.716362 -0.292767
v 0.231771 0.652411 -0.341838
v 0.231771 0.603339 -0.405790
v 0.231771 0.572491 -0.480263
v 0.191811 1.169018 -0.490970
v 0.154575 1.138170 -0.426475
v 0.122599 1.089099 -0.371091
v 0.098063 1.025147 -0.328594
v 0.082639 0.950674 -0.301879
v 0.077378 0.870755 -0.292767
v 0.082639 0.790835 -0.301879
v 0.098063 0.716362 -0.328594
v 0.122599 0.652411 -0.371091
v 0.154575 0.603339 -0.426475
v 0.191811 0.572491 -0.490970
v 0.162559 1.169018 -0.520223
v 0.098063 1.138170 -0.482986
v 0.042679 1.089099 -0.451010
v 0.000182 1.025147 -0.426475
v -0.026533 0.950674 -0.411051
v -0.035645 0.870755 -0.405790
v -0.026533 0.790835 -0.411051
v 0.000182 0.716362 -0.426475
v 0.042679 0.652411 -0.451010
v 0.098063 0.603339 -0.482986
v 0.162559 0.572491 -0.520223
v 0.151851 1.169018 -0.560182
v 0.077378 1.138170 -0.560182
v 0.013427 1.089099 -0.560182
v -0.035645 1.025147 -0.560182
v -0.066493 0.950674 -0.560182
v -0.077014 0.870755 -0.560182
v -0.066493 0.790835 -0.560182
v -0.035645 0.716362 -0.560182
v 0.013427 0.652411 -0.560182
v 0.077378 0.603339 -0.560182
v 0.151851 0.572491 -0.560182
v 0.162559 1.169018 -0.600142
v 0.098063 1.138170 -0.637378
v 0.042679 1.089099 -0.669354
v 0.000182 1.025147 -0.693890
v -0.026533 0.950674 -0.709314
v -0.035645 0.870755 -0.714575
v -0.026533 0.790835 -0.709314
v 0.000182 0.716362 -0.693890
v 0.042679 0.652411 -0.669354
v 0.098063 0.603339 -0.637379
v 0.162559 0.572491 -0.600142
v 0.191811 1.169018 -0.629394
v 0.154575 1.138170 -0.693890
v 0.122599 1.089099 -0.749274
v 0.098063 1.025147 -0.791771
v 0.082639 0.950674 -0.818486
v 0.077378 0.870755 -0.827598
v 0.082639 0.790835 -0.818486
v 0.098063 0.716362 -0.791771
v 0.122599 0.652411 -0.749274
v 0.154575 0.603339 -0.693890
v 0.191811 0.572491 -0.629395
v 0.231771 1.179540 -0.560182
v 0.231771 1.169018 -0.640102
v 0.231771 1.089099 -0.778526
vt 0.032372 0.781395
vt 0.088722 0.781395
vt 0.088722 0.837746
vt 0.032372 0.837746
vt 0.033348 0.906395
vt 0.089699 0.906395
vt 0.089699 0.962746
vt 0.033348 0.962746
vt 0.039386 0.767846
vt 0.095737 0.767846
vt 0.095737 0.824197
vt 0.039386 0.824197
vt 0.148063 0.909495
vt 0.204413 0.909495
vt 0.204413 0.965846
vt 0.026512 0.911278
vt 0.082863 0.911278
vt 0.082863 0.967628
vt 0.026512 0.967628
vt 0.160301 0.915184
vt 0.216652 0.915184
vt 0.216652 0.971535
vt 0.160301 0.971535
vt 0.031635 0.784898
vt 0.087986 0.784898
vt 0.087986 0.841249
vt 0.148063 0.909495
vt 0.204413 0.909495
vt 0.148063 0.965846
vt 0.162014 0.911046
vt 0.218365 0.911046
vt 0.218365 0.967396
vt 0.162014 0.967396
vt 0.033751 0.914370
vt 0.090102 0.914370
vt 0.090102 0.970721
vt 0.033751 0.970721
vt 0.162022 0.914138
vt 0.218373 0.914138
vt 0.218373 0.970489
vt 0.162022 0.970489
vt 0.033348 0.906395
vt 0.089699 0.906395
vt 0.089699 0.962746
vt 0.033348 0.962746
vt 0.160301 0.915184
vt 0.216652 0.915184
vt 0.216652 0.971535
vt 0.160301 0.971535
vt 0.087986 0.784898
vt 0.087986 0.841249
vt 0.148063 0.909495
vt 0.204413 0.909495
vt 0.204413 0.965846
vt 0.148063 0.965846
vt 0.162014 0.911046
vt 0.218365 0.911046
vt 0.218365 0.967396
vt 0.162014 0.967396
vt 0.033751 0.914370
vt 0.090102 0.914370
vt 0.090102 0.970721
vt 0.033751 0.970721
vt 0.162022 0.914138
vt 0.218373 0.914138
vt 0.218373 0.970489
vt 0.162022 0.970489
vt 0.033348 0.906395
vt 0.089699 0.906395
vt 0.089699 0.962746
vt 0.033348 0.962746
vt 0.032372 0.781395
vt 0.088722 0.781395
vt 0.088722 0.837746
vt 0.032372 0.837746
vt 0.033348 0.906395
vt 0.089699 0.906395
vt 0.089699 0.962746
vt 0.033348 0.962746
vt 0.039386 0.767846
vt 0.095737 0.767846
vt 0.095737 0.824197
vt 0.039386 0.824197
vt 0.148063 0.909495
vt 0.026512 0.911278
vt 0.082863 0.911278
vt 0.082863 0.967628
vt 0.026512 0.967628
vt 0.033348 0.906395
vt 0.089699 0.906395
vt 0.089699 0.962746
vt 0.033348 0.962746
vt 0.039386 0.767846
vt 0.095737 0.767846
vt 0.095737 0.824197
vt 0.039386 0.824197
vt 0.148063 0.909495
vt 0.204413 0.965846
vt 0.026512 0.911278
vt 0.082863 0.911278
vt 0.082863 0.967628
vt 0.026512 0.967628
vt 0.160301 0.915184
vt 0.216652 0.915184
vt 0.216652 0.971535
vt 0.160301 0.971535
vt 0.087986 0.784898
vt 0.087986 0.841249
vt 0.148063 0.909495
vt 0.204413 0.909495
vt 0.148063 0.965846
vt 0.162014 0.911046
vt 0.218365 0.911046
vt 0.218365 0.967396
vt 0.162014 0.967396
vt 0.033751 0.914370
vt 0.090102 0.914370
vt 0.090102 0.970721
vt 0.033751 0.970721
vt 0.162022 0.914138
vt 0.218373 0.914138
vt 0.218373 0.970489
vt 0.162022 0.970489
vt 0.033348 0.906395
vt 0.089699 0.906395
vt 0.089699 0.962746
vt 0.033348 0.962746
vt 0.032372 0.781395
vt 0.088722 0.781395
vt 0.088722 0.837746
vt 0.032372 0.837746
vt 0.033751 0.914370
vt 0.090102 0.914370
vt 0.090102 0.970721
vt 0.033751 0.970721
vt 0.162022 0.914138
vt 0.218373 0.914138
vt 0.218373 0.970489
vt 0.162022 0.970489
vt 0.033348 0.906395
vt 0.089699 0.906395
vt 0.089699 0.962746
vt 0.033348 0.962746
vt 0.032372 0.781395
vt 0.088722 0.781395
vt 0.088722 0.837746
vt 0.032372 0.837746
vt 0.033348 0.906395
vt 0.089699 0.906395
vt 0.089699 0.962746
vt 0.033348 0.962746
vt 0.039386 0.767846
vt 0.095737 0.767846
vt 0.095737 0.824197
vt 0.039386 0.824197
vt 0.148063 0.909495
vt 0.204413 0.965846
vt 0.026512 0.911278
vt 0.082863 0.911278
vt 0.082863 0.967628
vt 0.026512 0.967628
vt 0.160301 0.915184
vt 0.216652 0.915184
vt 0.216652 0.971535
vt 0.160301 0.971535
vt 0.087986 0.784898
vt 0.087986 0.841249
vt 0.148063 0.909495
vt 0.204413 0.909495
vt 0.148063 0.965846
vt 0.162014 0.911046
vt 0.218365 0.911046
vt 0.218365 0.967396
vt 0.162014 0.967396
vt 0.160301 0.915184
vt 0.216652 0.915184
vt 0.216652 0.971535
vt 0.160301 0.971535
vt 0.087986 0.784898
vt 0.087986 0.841249
vt 0.148063 0.909495
vt 0.204413 0.909495
vt 0.204413 0.965846
vt 0.148063 0.965846
vt 0.162014 0.911046
vt 0.218365 0.911046
vt 0.218365 0.967396
vt 0.162014 0.967396
vt 0.033751 0.914370
vt 0.090102 0.914370
vt 0.090102 0.970721
vt 0.033751 0.970721
vt 0.162022 0.914138
vt 0.218373 0.914138
vt 0.218373 0.970489
vt 0.162022 0.970489
vt 0.033348 0.906395
vt 0.089699 0.906395
vt 0.089699 0.962746
vt 0.033348 0.962746
vt 0.032372 0.781395
vt 0.088722 0.781395
vt 0.088722 0.837746
vt 0.032372 0.837746
vt 0.033348 0.906395
vt 0.089699 0.906395
vt 0.089699 0.962746
vt 0.033348 0.962746
vt 0.039386 0.767846
vt 0.095737 0.767846
vt 0.095737 0.824197
vt 0.039386 0.824197
vt 0.148063 0.909495
vt 0.026512 0.911278
vt 0.082863 0.911278
vt 0.082863 0.967628
vt 0.026512 0.967628
vt 0.032372 0.781395
vt 0.088722 0.781395
vt 0.088722 0.837746
vt 0.032372 0.837746
vt 0.033348 0.906395
vt 0.089699 0.906395
vt 0.089699 0.962746
vt 0.033348 0.962746
vt 0.039386 0.767846
vt 0.095737 0.767846
vt 0.095737 0.824197
vt 0.039386 0.824197
vt 0.148063 0.909495
vt 0.204413 0.965846
vt 0.026512 0.911278
vt 0.082863 0.911278
vt 0.082863 0.967628
vt 0.026512 0.967628
vt 0.160301 0.915184
vt 0.216652 0.915184
vt 0.216652 0.971535
vt 0.160301 0.971535
vt 0.087986 0.784898
vt 0.087986 0.841249
vt 0.148063 0.909495
vt 0.204413 0.909495
vt 0.148063 0.965846
vt 0.162014 0.911046
vt 0.218365 0.911046
vt 0.218365 0.967396
vt 0.162014 0.967396
vt 0.033751 0.914370
vt 0.090102 0.914370
vt 0.090102 0.970721
vt 0.033751 0.970721
vt 0.162022 0.914138
vt 0.218373 0.914138
vt 0.218373 0.970489
vt 0.162022 0.970489
vt 0.033348 0.906395
vt 0.089699 0.906395
vt 0.089699 0.962746
vt 0.033348 0.962746
vt 0.033751 0.914370
vt 0.090102 0.914370
vt 0.090102 0.970721
vt 0.033751 0.970721
vt 0.162022 0.914138
vt 0.218373 0.914138
vt 0.218373 0.970489
vt 0.162022 0.970489
vt 0.033348 0.906395
vt 0.089699 0.906395
vt 0.089699 0.962746
vt 0.033348 0.962746
vt 0.032372 0.781395
vt 0.088722 0.781395
vt 0.088722 0.837746
vt 0.032372 0.837746
vt 0.033348 0.906395
vt 0.089699 0.906395
vt 0.089699 0.962746
vt 0.033348 0.962746
vt 0.039386 0.767846
vt 0.095737 0.767846
vt 0.095737 0.824197
vt 0.039386 0.824197
vt 0.148063 0.909495
vt 0.204413 0.965846
vt 0.026512 0.911278
vt 0.082863 0.911278
vt 0.082863 0.967628
vt 0.026512 0.967628
vt 0.160301 0.915184
vt 0.216652 0.915184
vt 0.216652 0.971535
vt 0.160301 0.971535
vt 0.087986 0.784898
vt 0.087986 0.841249
vt 0.148063 0.909495
vt 0.204413 0.909495
vt 0.148063 0.965846
vt 0.162014 0.911046
vt 0.218365 0.911046
vt 0.218365 0.967396
vt 0.162014 0.967396
vt 0.026512 0.911278
vt 0.082863 0.911278
vt 0.082863 0.967628
vt 0.026512 0.967628
vt 0.160301 0.915184
vt 0.216652 0.915184
vt 0.216652 0.971535
vt 0.160301 0.971535
vt 0.087986 0.784898
vt 0.087986 0.841249
vt 0.148063 0.909495
vt 0.204413 0.909495
vt 0.204413 0.965846
vt 0.148063 0.965846
vt 0.162014 0.911046
vt 0.218365 0.911046
vt 0.218365 0.967396
vt 0.162014 0.967396
vt 0.033751 0.914370
vt 0.090102 0.914370
vt 0.090102 0.970721
vt 0.033751 0.970721
vt 0.162022 0.914138
vt 0.218373 0.914138
vt 0.218373 0.970489
vt 0.162022 0.970489
vt 0.033348 0.906395
vt 0.089699 0.906395
vt 0.089699 0.962746
vt 0.033348 0.962746
vt 0.032372 0.781395
vt 0.088722 0.781395
vt 0.088722 0.837746
vt 0.032372 0.837746
vt 0.033348 0.906395
vt 0.089699 0.906395
vt 0.089699 0.962746
vt 0.033348 0.962746
vt 0.039386 0.767846
vt 0.095737 0.767846
vt 0.095737 0.824197
vt 0.039386 0.824197
vt 0.148063 0.909495
vt 0.032372 0.781395
vt 0.088722 0.781395
vt 0.088722 0.837746
vt 0.032372 0.837746
vt 0.033348 0.906395
vt 0.089699 0.906395
vt 0.089699 0.962746
vt 0.033348 0.962746
vt 0.039386 0.767846
vt 0.095737 0.767846
vt 0.095737 0.824197
vt 0.039386 0.824197
vt 0.148063 0.909495
vt 0.204413 0.965846
vt 0.026512 0.911278
vt 0.082863 0.911278
vt 0.082863 0.967628
vt 0.026512 0.967628
vt 0.160301 0.915184
vt 0.216652 0.915184
vt 0.216652 0.971535
vt 0.160301 0.971535
vt 0.087986 0.784898
vt 0.087986 0.841249
vt 0.148063 0.909495
vt 0.204413 0.909495
vt 0.148063 0.965846
vt 0.162014 0.911046
vt 0.218365 0.911046
vt 0.218365 0.967396
vt 0.162014 0.967396
vt 0.033751 0.914370
vt 0.090102 0.914370
vt 0.090102 0.970721
vt 0.033751 0.970721
vt 0.162022 0.914138
vt 0.218373 0.914138
vt 0.218373 0.970489
vt 0.162022 0.970489
vt 0.033348 0.906395
vt 0.089699 0.906395
vt 0.089699 0.962746
vt 0.033348 0.962746
vt 0.162014 0.911046
vt 0.218365 0.911046
vt 0.218365 0.967396
vt 0.162014 0.967396
vt 0.033751 0.914370
vt 0.090102 0.914370
vt 0.090102 0.970721
vt 0.033751 0.970721
vt 0.162022 0.914138
vt 0.218373 0.914138
vt 0.218373 0.970489
vt 0.162022 0.970489
vt 0.033348 0.906395
vt 0.089699 0.906395
vt 0.089699 0.962746
vt 0.033348 0.962746
vt 0.032372 0.781395
vt 0.088722 0.781395
vt 0.088722 0.837746
vt 0.032372 0.837746
vt 0.033348 0.906395
vt 0.089699 0.906395
vt 0.089699 0.962746
vt 0.033348 0.962746
vt 0.039386 0.767846
vt 0.095737 0.767846
vt 0.095737 0.824197
vt 0.039386 0.824197
vt 0.148063 0.909495
vt 0.204413 0.965846
vt 0.026512 0.911278
vt 0.082863 0.911278
vt 0.082863 0.967628
vt 0.026512 0.967628
vt 0.160301 0.915184
vt 0.216652 0.915184
vt 0.216652 0.971535
vt 0.160301 0.971535
vt 0.087986 0.784898
vt 0.087986 0.841249
vt 0.148063 0.909495
vt 0.204413 0.909495
vt 0.148063 0.965846
vt 0.148063 0.909495
vt 0.204413 0.965846
vt 0.026512 0.911278
vt 0.082863 0.911278
vt 0.082863 0.967628
vt 0.026512 0.967628
vt 0.160301 0.915184
vt 0.216652 0.915184
vt 0.216652 0.971535
vt 0.160301 0.971535
vt 0.087986 0.784898
vt 0.087986 0.841249
vt 0.148063 0.909495
vt 0.204413 0.909495
vt 0.148063 0.965846
vt 0.162014 0.911046
vt 0.218365 0.911046
vt 0.218365 0.967396
vt 0.162014 0.967396
vt 0.033751 0.914370
vt 0.090102 0.914370
vt 0.090102 0.970721
vt 0.033751 0.970721
vt 0.162022 0.914138
vt 0.218373 0.914138
vt 0.218373 0.970489
vt 0.162022 0.970489
vt 0.033348 0.906395
vt 0.089699 0.906395
vt 0.089699 0.962746
vt 0.033348 0.962746
vt 0.032372 0.781395
vt 0.088722 0.781395
vt 0.088722 0.837746
vt 0.032372 0.837746
vt 0.033348 0.906395
vt 0.089699 0.906395
vt 0.089699 0.962746
vt 0.033348 0.962746
vt 0.039386 0.767846
vt 0.095737 0.767846
vt 0.095737 0.824197
vt 0.039386 0.824197
vt 0.033348 0.906395
vt 0.089699 0.906395
vt 0.089699 0.962746
vt 0.033348 0.962746
vt 0.032372 0.781395
vt 0.088722 0.781395
vt 0.088722 0.837746
vt 0.032372 0.837746
vt 0.033348 0.906395
vt 0.089699 0.906395
vt 0.089699 0.962746
vt 0.033348 0.962746
vt 0.039386 0.767846
vt 0.095737 0.767846
vt 0.095737 0.824197
vt 0.039386 0.824197
vt 0.148063 0.909495
vt 0.204413 0.965846
vt 0.026512 0.911278
vt 0.082863 0.911278
vt 0.082863 0.967628
vt 0.026512 0.967628
vt 0.160301 0.915184
vt 0.216652 0.915184
vt 0.216652 0.971535
vt 0.160301 0.971535
vt 0.087986 0.784898
vt 0.087986 0.841249
vt 0.148063 0.909495
vt 0.204413 0.909495
vt 0.148063 0.965846
vt 0.162014 0.911046
vt 0.218365 0.911046
vt 0.218365 0.967396
vt 0.162014 0.967396
vt 0.033751 0.914370
vt 0.090102 0.914370
vt 0.090102 0.970721
vt 0.033751 0.970721
vt 0.162022 0.914138
vt 0.218373 0.914138
vt 0.218373 0.970489
vt 0.162022 0.970489
vn 0.2568 -0.1262 -0.9582
vn 0.2079 0.5955 -0.7760
vn 0.1020 -0.9191 -0.3807
vn 0.0350 0.9908 -0.1304
vn 0.2403 -0.3715 -0.8968
vn 0.2403 0.3715 -0.8968
vn 0.0350 -0.9908 -0.1304
vn 0.1020 0.9191 -0.3807
vn 0.2079 -0.5955 -0.7760
vn 0.2568 0.1262 -0.9582
vn 0.1610 0.7830 -0.6008
vn 0.1610 -0.7830 -0.6008
vn 0.6565 0.3715 -0.6565
vn 0.0955 -0.9908 -0.0955
vn 0.2787 0.9191 -0.2787
vn 0.5681 -0.5955 -0.5681
vn 0.7015 0.1262 -0.7015
vn 0.4398 0.7830 -0.4398
vn 0.4398 -0.7830 -0.4398
vn 0.7015 -0.1262 -0.7015
vn 0.5681 0.5955 -0.5681
vn 0.2787 -0.9191 -0.2787
vn 0.0955 0.9908 -0.0955
vn 0.6565 -0.3715 -0.6565
vn 0.7760 0.5955 -0.2079
vn 0.3807 -0.9191 -0.1020
vn 0.1304 0.9908 -0.0350
vn 0.8968 -0.3715 -0.2403
vn 0.8968 0.3715 -0.2403
vn 0.1304 -0.9908 -0.0350
vn 0.3807 0.9191 -0.1020
vn 0.7760 -0.5955 -0.2079
vn 0.9582 0.1262 -0.2568
vn 0.6008 0.7830 -0.1610
vn 0.6008 -0.7830 -0.1610
vn 0.9582 -0.1261 -0.2568
vn 0.9582 0.1262 0.2568
vn 0.6008 0.7830 0.1610
vn 0.6008 -0.7830 0.1610
vn 0.9582 -0.1261 0.2568
vn 0.7760 0.5955 0.2079
vn 0.3807 -0.9191 0.1020
vn 0.1304 0.9908 0.0350
vn 0.8968 -0.3715 0.2403
vn 0.8968 0.3715 0.2403
vn 0.1304 -0.9908 0.0350
vn 0.3807 0.9191 0.1020
vn 0.7760 -0.5955 0.2079
vn 0.6565 0.3715 0.6565
vn 0.0955 -0.9908 0.0955
vn 0.2787 0.9191 0.2787
vn 0.5681 -0.5955 0.5681
vn 0.7015 0.1262 0.7015
vn 0.4398 0.7830 0.4398
vn 0.4398 -0.7830 0.4398
vn 0.7015 -0.1262 0.7015
vn 0.5681 0.5955 0.5681
vn 0.2787 -0.9191 0.2787
vn 0.0955 0.9908 0.0955
vn 0.6565 -0.3715 0.6565
vn 0.2568 -0.1262 0.9582
vn 0.2079 0.5955 0.7760
vn 0.1020 -0.9191 0.3807
vn 0.0350 0.9908 0.1304
vn 0.2403 -0.3715 0.8968
vn 0.2403 0.3715 0.8968
vn 0.0350 -0.9908 0.1304
vn 0.1020 0.9191 0.3807
vn 0.2079 -0.5955 0.7760
vn 0.2568 0.1262 0.9582
vn 0.1610 0.7830 0.6008
vn 0.1610 -0.7830 0.6008
vn -0.2568 0.1262 0.9582
vn -0.1610 0.7830 0.6008
vn -0.1610 -0.7830 0.6008
vn -0.2568 -0.1262 0.9582
vn -0.2079 0.5955 0.7760
vn -0.1020 -0.9191 0.3807
vn -0.0350 0.9908 0.1304
vn -0.2403 -0.3715 0.8968
vn -0.2403 0.3715 0.8968
vn -0.0350 -0.9908 0.1304
vn -0.1020 0.9191 0.3807
vn -0.2079 -0.5955 0.7760
vn -0.6565 -0.3715 0.6565
vn -0.6565 0.3715 0.6565
vn -0.0955 -0.9908 0.0955
vn -0.2787 0.9191 0.2787
vn -0.5681 -0.5955 0.5681
vn -0.7015 0.1262 0.7015
vn -0.4398 0.7830 0.4398
vn -0.4398 -0.7830 0.4398
vn -0.7015 -0.1262 0.7015
vn -0.5681 0.5955 0.5681
vn -0.2787 -0.9191 0.2787
vn -0.0955 0.9908 0.0955
vn -0.9582 -0.1262 0.2568
vn -0.7760 0.5955 0.2079
vn -0.3807 -0.9191 0.1020
vn -0.1304 0.9908 0.0350
vn -0.8968 -0.3715 0.2403
vn -0.8968 0.3715 0.2403
vn -0.1304 -0.9908 0.0350
vn -0.3807 0.9191 0.1020
vn -0.7760 -0.5955 0.2079
vn -0.9582 0.1262 0.2568
vn -0.6008 0.7830 0.1610
vn -0.6008 -0.7830 0.1610
vn -0.7760 -0.5955 -0.2079
vn -0.9582 0.1262 -0.2568
vn -0.6008 0.7830 -0.1610
vn -0.6008 -0.7830 -0.1610
vn -0.9582 -0.1262 -0.2568
vn -0.7760 0.5955 -0.2079
vn -0.3807 -0.9191 -0.1020
vn -0.1304 0.9908 -0.0350
vn -0.8968 -0.3715 -0.2403
vn -0.8968 0.3715 -0.2403
vn -0.1304 -0.9908 -0.0350
vn -0.3807 0.9191 -0.1020
vn -0.0955 0.9908 -0.0955
vn -0.6565 -0.3715 -0.6565
vn -0.6565 0.3715 -0.6565
vn -0.0955 -0.9908 -0.0955
vn -0.2787 0.9191 -0.2787
vn -0.5681 -0.5955 -0.5681
vn -0.7015 0.1262 -0.7015
vn -0.4398 0.7830 -0.4398
vn -0.4398 -0.7830 -0.4398
vn -0.7015 -0.1262 -0.7015
vn -0.5681 0.5955 -0.5681
vn -0.2787 -0.9191 -0.2787
vn -0.1610 -0.7830 -0.6008
vn -0.2568 -0.1262 -0.9582
vn -0.2079 0.5955 -0.7760
vn -0.1020 -0.9191 -0.3807
vn -0.0350 0.9908 -0.1304
vn -0.2403 -0.3715 -0.8968
vn -0.2403 0.3715 -0.8968
vn -0.0350 -0.9908 -0.1304
vn -0.1020 0.9191 -0.3807
vn -0.2079 -0.5955 -0.7760
vn -0.2568 0.1262 -0.9582
vn -0.1610 0.7830 -0.6008
usemtl Planet_3
s off
f 5/1/1 4/2/1 16/3/1 17/4/1
f 2/5/2 134/6/2 13/7/2 14/8/2
f 9/9/3 8/10/3 20/11/3 21/12/3
f 133/13/4 132/14/4 11/15/4
f 6/16/5 5/17/5 17/18/5 18/19/5
f 3/20/6 2/21/6 14/22/6 15/23/6
f 10/24/7 9/25/7 21/26/7
f 1/27/8 133/28/8 11/15/8 12/29/8
f 7/30/9 6/31/9 18/32/9 19/33/9
f 4/34/10 3/35/10 15/36/10 16/37/10
f 134/38/11 1/39/11 12/40/11 13/41/11
f 8/42/12 7/43/12 19/44/12 20/45/12
f 15/46/13 14/47/13 25/48/13 26/49/13
f 10/24/14 21/50/14 32/51/14
f 12/52/15 11/53/15 22/54/15 23/55/15
f 19/56/16 18/57/16 29/58/16 30/59/16
f 16/60/17 15/61/17 26/62/17 27/63/17
f 13/64/18 12/65/18 23/66/18 24/67/18
f 20/68/19 19/69/19 30/70/19 31/71/19
f 17/72/20 16/73/20 27/74/20 28/75/20
f 14/76/21 13/77/21 24/78/21 25/79/21
f 21/80/22 20/81/22 31/82/22 32/83/22
f 11/84/23 132/14/23 22/54/23
f 18/85/24 17/86/24 28/87/24 29/88/24
f 25/89/25 24/90/25 35/91/25 36/92/25
f 32/93/26 31/94/26 42/95/26 43/96/26
f 22/97/27 132/14/27 33/98/27
f 29/99/28 28/100/28 39/101/28 40/102/28
f 26/103/29 25/104/29 36/105/29 37/106/29
f 10/24/30 32/107/30 43/108/30
f 23/109/31 22/110/31 33/98/31 34/111/31
f 30/112/32 29/113/32 40/114/32 41/115/32
f 27/116/33 26/117/33 37/118/33 38/119/33
f 24/120/34 23/121/34 34/122/34 35/123/34
f 31/124/35 30/125/35 41/126/35 42/127/35
f 28/128/36 27/129/36 38/130/36 39/131/36
f 38/132/37 37/133/37 48/134/37 49/135/37
f 35/136/38 34/137/38 45/138/38 46/139/38
f 42/140/39 41/141/39 52/142/39 53/143/39
f 39/144/40 38/145/40 49/146/40 50/147/40
f 36/148/41 35/149/41 46/150/41 47/151/41
f 43/152/42 42/153/42 53/154/42 54/155/42
f 33/156/43 132/14/43 44/157/43
f 40/158/44 39/159/44 50/160/44 51/161/44
f 37/162/45 36/163/45 47/164/45 48/165/45
f 10/24/46 43/166/46 54/167/46
f 34/168/47 33/169/47 44/157/47 45/170/47
f 41/171/48 40/172/48 51/173/48 52/174/48
f 48/175/49 47/176/49 58/177/49 59/178/49
f 10/24/50 54/179/50 65/180/50
f 45/181/51 44/182/51 55/183/51 56/184/51
f 52/185/52 51/186/52 62/187/52 63/188/52
f 49/189/53 48/190/53 59/191/53 60/192/53
f 46/193/54 45/194/54 56/195/54 57/196/54
f 53/197/55 52/198/55 63/199/55 64/200/55
f 50/201/56 49/202/56 60/203/56 61/204/56
f 47/205/57 46/206/57 57/207/57 58/208/57
f 54/209/58 53/210/58 64/211/58 65/212/58
f 44/213/59 132/14/59 55/183/59
f 51/214/60 50/215/60 61/216/60 62/217/60
f 61/218/61 60/219/61 71/220/61 72/221/61
f 58/222/62 57/223/62 68/224/62 69/225/62
f 65/226/63 64/227/63 75/228/63 76/229/63
f 55/230/64 132/14/64 66/231/64
f 62/232/65 61/233/65 72/234/65 73/235/65
f 59/236/66 58/237/66 69/238/66 70/239/66
f 10/24/67 65/240/67 76/241/67
f 56/242/68 55/243/68 66/231/68 67/244/68
f 63/245/69 62/246/69 73/247/69 74/248/69
f 60/249/70 59/250/70 70/251/70 71/252/70
f 57/253/71 56/254/71 67/255/71 68/256/71
f 64/257/72 63/258/72 74/259/72 75/260/72
f 71/261/73 70/262/73 81/263/73 82/264/73
f 68/265/74 67/266/74 78/267/74 79/268/74
f 75/269/75 74/270/75 85/271/75 86/272/75
f 72/273/76 71/274/76 82/275/76 83/276/76
f 69/277/77 68/278/77 79/279/77 80/280/77
f 76/281/78 75/282/78 86/283/78 87/284/78
f 66/285/79 132/14/79 77/286/79
f 73/287/80 72/288/80 83/289/80 84/290/80
f 70/291/81 69/292/81 80/293/81 81/294/81
f 10/24/82 76/295/82 87/296/82
f 67/297/83 66/298/83 77/286/83 78/299/83
f 74/300/84 73/301/84 84/302/84 85/303/84
f 84/304/85 83/305/85 94/306/85 95/307/85
f 81/308/86 80/309/86 91/310/86 92/311/86
f 10/24/87 87/312/87 98/313/87
f 78/314/88 77/315/88 88/316/88 89/317/88
f 85/318/89 84/319/89 95/320/89 96/321/89
f 82/322/90 81/323/90 92/324/90 93/325/90
f 79/326/91 78/327/91 89/328/91 90/329/91
f 86/330/92 85/331/92 96/332/92 97/333/92
f 83/334/93 82/335/93 93/336/93 94/337/93
f 80/338/94 79/339/94 90/340/94 91/341/94
f 87/342/95 86/343/95 97/344/95 98/345/95
f 77/346/96 132/14/96 88/316/96
f 94/347/97 93/348/97 104/349/97 105/350/97
f 91/351/98 90/352/98 101/353/98 102/354/98
f 98/355/99 97/356/99 108/357/99 109/358/99
f 88/359/100 132/14/100 99/360/100
f 95/361/101 94/362/101 105/363/101 106/364/101
f 92/365/102 91/366/102 102/367/102 103/368/102
f 10/24/103 98/369/103 109/370/103
f 89/371/104 88/372/104 99/360/104 100/373/104
f 96/374/105 95/375/105 106/376/105 107/377/105
f 93/378/106 92/379/106 103/380/106 104/381/106
f 90/382/107 89/383/107 100/384/107 101/385/107
f 97/386/108 96/387/108 107/388/108 108/389/108
f 107/390/109 106/391/109 117/392/109 118/393/109
f 104/394/110 103/395/110 114/396/110 115/397/110
f 101/398/111 100/399/111 111/400/111 112/401/111
f 108/402/112 107/403/112 118/404/112 119/405/112
f 105/406/113 104/407/113 115/408/113 116/409/113
f 102/410/114 101/411/114 112/412/114 113/413/114
f 109/414/115 108/415/115 119/416/115 120/417/115
f 99/418/116 132/14/116 110/419/116
f 106/420/117 105/421/117 116/422/117 117/423/117
f 103/424/118 102/425/118 113/426/118 114/427/118
f 10/24/119 109/428/119 120/429/119
f 100/430/120 99/431/120 110/419/120 111/432/120
f 110/433/121 132/14/121 121/434/121
f 117/435/122 116/436/122 127/437/122 128/438/122
f 114/439/123 113/440/123 124/441/123 125/442/123
f 10/24/124 120/443/124 131/444/124
f 111/445/125 110/446/125 121/434/125 122/447/125
f 118/448/126 117/449/126 128/450/126 129/451/126
f 115/452/127 114/453/127 125/454/127 126/455/127
f 112/456/128 111/457/128 122/458/128 123/459/128
f 119/460/129 118/461/129 129/462/129 130/463/129
f 116/464/130 115/465/130 126/466/130 127/467/130
f 113/468/131 112/469/131 123/470/131 124/471/131
f 120/472/132 119/473/132 130/474/132 131/475/132
f 130/476/133 129/477/133 7/478/133 8/479/133
f 127/480/134 126/481/134 4/482/134 5/483/134
f 124/484/135 123/485/135 134/486/135 2/487/135
f 131/488/136 130/489/136 8/490/136 9/491/136
f 121/492/137 132/14/137 133/493/137
f 128/494/138 127/495/138 5/496/138 6/497/138
f 125/498/139 124/499/139 2/500/139 3/501/139
f 10/24/140 131/502/140 9/503/140
f 122/504/141 121/505/141 133/493/141 1/506/141
f 129/507/142 128/508/142 6/509/142 7/510/142
f 126/511/143 125/512/143 3/513/143 4/514/143
f 123/515/144 122/516/144 1/517/144 134/518/144
